<svg xmlns="http://www.w3.org/2000/svg" width="15" height="14" viewBox="0 0 15 14" fill="none">
  <g clip-path="url(#clip0_4539_1807)">
    <path d="M8.17742 6.32258V0.677419C8.17742 0.497757 8.10605 0.325452 7.97901 0.198411C7.85197 0.0713707 7.67966 0 7.5 0C7.32034 0 7.14803 0.0713707 7.02099 0.198411C6.89395 0.325452 6.82258 0.497757 6.82258 0.677419V6.32258H1.17742C0.997757 6.32258 0.825452 6.39395 0.698411 6.52099C0.571371 6.64803 0.5 6.82034 0.5 7C0.5 7.17966 0.571371 7.35197 0.698411 7.47901C0.825452 7.60605 0.997757 7.67742 1.17742 7.67742H6.82258V13.3226C6.82492 13.5015 6.89704 13.6725 7.02358 13.799C7.15012 13.9255 7.32106 13.9977 7.5 14C7.67966 14 7.85197 13.9286 7.97901 13.8016C8.10605 13.6745 8.17742 13.5022 8.17742 13.3226V7.67742H13.8226C14.0022 7.67742 14.1745 7.60605 14.3016 7.47901C14.4286 7.35197 14.5 7.17966 14.5 7C14.4977 6.82106 14.4255 6.65012 14.299 6.52358C14.1725 6.39704 14.0015 6.32492 13.8226 6.32258H8.17742Z" fill="white"/>
  </g>
  <defs>
    <clipPath id="clip0_4539_1807">
      <rect width="14" height="14" fill="white" transform="translate(0.5)"/>
    </clipPath>
  </defs>
</svg>